<svg height="256" viewBox="0 0 512 512" width="256" xmlns="http://www.w3.org/2000/svg"><g fill="#fff"><path d="M0 19.169v473.662h512V19.169zm319.132 29.825h66.612v93.635c-.007 9.232-3.706 17.468-9.757 23.541-6.073 6.051-14.308 9.75-23.549 9.758-9.24-.008-17.476-3.707-23.549-9.758-6.051-6.073-9.75-14.301-9.757-23.541zm-96.438 0h66.612v93.635c-.007 9.24-3.706 17.468-9.758 23.541-6.072 6.051-14.3 9.75-23.541 9.758-9.247-.008-17.483-3.707-23.556-9.758-6.051-6.073-9.75-14.301-9.758-23.541V48.994zm-96.43 0h66.605v93.635c-.007 9.24-3.706 17.468-9.75 23.541-6.08 6.051-14.308 9.75-23.556 9.758-9.24-.008-17.468-3.707-23.541-9.758-6.051-6.073-9.75-14.301-9.757-23.541V48.994zm-96.438 0h66.612v93.635c-.008 9.24-3.706 17.468-9.758 23.541-6.072 6.051-14.308 9.75-23.556 9.758-9.24-.008-17.468-3.707-23.541-9.758-6.051-6.073-9.75-14.301-9.758-23.541V48.994zm452.348 414.012H338.96v-96.482H173.048v96.482H29.826V196.178c9.67 6.029 21.058 9.568 33.299 9.576 19.355-.008 36.649-8.731 48.226-22.435 11.578 13.704 28.864 22.427 48.211 22.435 19.355 0 36.642-8.723 48.219-22.428 11.585 13.697 28.872 22.42 48.226 22.428 19.347-.008 36.634-8.731 48.212-22.435 11.578 13.704 28.864 22.427 48.219 22.435 19.348-.008 36.634-8.731 48.219-22.428 11.578 13.704 28.864 22.428 48.219 22.428 12.24-.008 23.629-3.546 33.298-9.576zm0-320.377c-.006 9.24-3.706 17.468-9.757 23.541-6.072 6.051-14.301 9.75-23.541 9.758-9.248-.008-17.476-3.707-23.556-9.758-6.044-6.073-9.742-14.301-9.75-23.541V48.994h66.605v93.635z"/><path d="M106.872 244.987h49.712v58.253h-49.712zm248.544 0h49.712v58.253h-49.712zm-124.275 0h49.718v58.253h-49.718z"/></g></svg>